<?xml version="1.0" encoding="utf-8"?>
<!-- Generator: Adobe Illustrator 25.4.1, SVG Export Plug-In . SVG Version: 6.00 Build 0)  -->
<svg version="1.1" id="레이어_1" xmlns="http://www.w3.org/2000/svg" xmlns:xlink="http://www.w3.org/1999/xlink" x="0px"
	 y="0px" viewBox="0 0 2500 2500" style="enable-background:new 0 0 2500 2500;" xml:space="preserve">
<style type="text/css">
	.st0{clip-path:url(#SVGID_00000147195304274175415030000007900340113105679770_);}
	.st1{fill:#251BE0;}
	.st2{fill:#668AFF;}
	.st3{fill:#3A5CFB;}
</style>
<g>
	<g>
		<g>
			<defs>
				<rect id="SVGID_1_" x="146.8" y="143.6" width="2212.8" height="2212.8"/>
			</defs>
			<clipPath id="SVGID_00000083805454501121666070000011477235337893341613_">
				<use xlink:href="#SVGID_1_"  style="overflow:visible;"/>
			</clipPath>
			<g style="clip-path:url(#SVGID_00000083805454501121666070000011477235337893341613_);">
				<g id="Group">
					<path class="st1" d="M2099.1,628.1h-932.8L959,420.8H440.8c-114,0-207.3,93.3-207.3,207.3v414.6h2072.9V835.4
						C2306.4,721.4,2213.1,628.1,2099.1,628.1z"/>
					<path class="st2" d="M2099.1,628.1H440.8c-114,0-207.3,93.3-207.3,207.3v1036.5c0,114,93.3,207.3,207.3,207.3h1658.3
						c114,0,207.3-93.3,207.3-207.3V835.4C2306.4,721.4,2213.1,628.1,2099.1,628.1z"/>
				</g>
			</g>
		</g>
	</g>
</g>
<path class="st3" d="M2217.2,804.6H551.7c-114.5,0-216.4,81.9-226.4,182.1l-91.1,910.4c-10,100.1,75.5,182.1,190,182.1h1665.4
	c114.5,0,216.4-81.9,226.4-182.1l91.1-910.4C2417.1,886.6,2331.6,804.6,2217.2,804.6z"/>
</svg>
