<?xml version="1.0" encoding="utf-8"?>
<!-- Generator: Adobe Illustrator 24.3.0, SVG Export Plug-In . SVG Version: 6.00 Build 0)  -->
<svg version="1.1" id="Layer_1" xmlns="http://www.w3.org/2000/svg" xmlns:xlink="http://www.w3.org/1999/xlink" x="0px" y="0px"
	 viewBox="0 0 206.9 170.1" style="enable-background:new 0 0 206.9 170.1;" xml:space="preserve">
<path d="M197,85c5.1-2.2,8.7-7.3,8.7-13.3c0-8-6.5-14.5-14.5-14.5c-8,0-14.5,6.5-14.5,14.5c0,5.9,3.6,11,8.7,13.3h-6.8h-1.9
	l-0.8,1.7l-25.6,52.9l-9.5-19.5c8.9-9.5,12.2-23.7,12.2-52.1c0-28.3-2.9-42.9-10.3-52.2C134.4,5.8,119.6,1,97.4,1H3.8h-3v3v23.7v3h3
	h26h3v0h61.5c12.2,0,17.9,1.8,21.3,6.5c3.6,5.1,4.9,14.1,4.9,32.1c0,6.3-0.3,11.5-0.9,15.7h-19.4h-3v3v15.2c-0.9,0-1.9,0.1-2.9,0.1
	H32.8V47.2v-3h-3h-26h-3v3v82v3h3h93.5v33.5v3h3h13.6h3l0-3l-0.2-34.6c2.5-0.4,4.9-0.9,7.1-1.4l18.1,37.4l0.8,1.7h1.9h11h1.9
	l0.8-1.7l25.4-52.1l-0.4,50.7l0,3h3h13.7h3v-3V88v-3h-3H197z"/>
</svg>
